<?xml version="1.0" encoding="UTF-8"?>
<svg version="1.1" xmlns="http://www.w3.org/2000/svg" width="512" height="512">
<path d="M0 0 C1.01790619 0.00215515 2.03581238 0.0043103 3.08456421 0.00653076 C17.69363523 0.05620146 32.02575853 0.30709809 46.375 3.3125 C47.34985352 3.51117676 48.32470703 3.70985352 49.32910156 3.91455078 C97.7109774 14.03517194 141.69928269 35.9516877 177.375 70.3125 C178.3640332 71.26068604 178.3640332 71.26068604 179.37304688 72.22802734 C188.86130305 81.37247479 197.6012044 90.66984009 205.375 101.3125 C206.23306152 102.46355017 207.09113451 103.61459177 207.94921875 104.765625 C213.98736829 112.95680614 219.34595521 121.47054105 224.375 130.3125 C224.73948242 130.94430176 225.10396484 131.57610352 225.47949219 132.22705078 C247.08534998 169.97532572 256.85198095 212.74189997 256.6875 255.9375 C256.68534485 256.95540619 256.6831897 257.97331238 256.68096924 259.02206421 C256.63129854 273.63113523 256.38040191 287.96325853 253.375 302.3125 C253.07698486 303.77478027 253.07698486 303.77478027 252.77294922 305.26660156 C242.65232806 353.6484774 220.7358123 397.63678269 186.375 433.3125 C185.74287598 433.97185547 185.11075195 434.63121094 184.45947266 435.31054688 C175.31502521 444.79880305 166.01765991 453.5387044 155.375 461.3125 C154.22394983 462.17056152 153.07290823 463.02863451 151.921875 463.88671875 C143.73224019 469.92427396 135.22961724 475.30707302 126.375 480.3125 C125.66778809 480.7146875 124.96057617 481.116875 124.23193359 481.53125 C101.09654164 494.5566741 75.92537591 503.30551461 49.9375 508.625 C49.21860596 508.77235596 48.49971191 508.91971191 47.7590332 509.0715332 C33.08339502 511.86090125 18.55831162 512.66142619 3.64770508 512.62817383 C0.70811513 512.6250221 -2.2304558 512.64854926 -5.16992188 512.67382812 C-18.54306192 512.71848737 -31.43916711 511.51301542 -44.625 509.3125 C-46.33055054 509.03031616 -46.33055054 509.03031616 -48.07055664 508.74243164 C-91.33802759 500.97044532 -132.38793216 480.98345309 -165.625 452.3125 C-166.37007813 451.67828125 -167.11515625 451.0440625 -167.8828125 450.390625 C-181.38779833 438.57948485 -194.05918743 425.82889772 -204.625 411.3125 C-205.48149066 410.16255169 -206.33826433 409.01281411 -207.1953125 407.86328125 C-213.23534209 399.67315742 -218.61867614 391.16870382 -223.625 382.3125 C-224.0271875 381.60528809 -224.429375 380.89807617 -224.84375 380.16943359 C-237.8691741 357.03404164 -246.61801461 331.86287591 -251.9375 305.875 C-252.08485596 305.15610596 -252.23221191 304.43721191 -252.3840332 303.6965332 C-255.35789088 288.05024391 -255.99800362 272.57681954 -255.9375 256.6875 C-255.93534485 255.66959381 -255.9331897 254.65168762 -255.93096924 253.60293579 C-255.88129854 238.99386477 -255.63040191 224.66174147 -252.625 210.3125 C-252.42632324 209.33764648 -252.22764648 208.36279297 -252.02294922 207.35839844 C-241.90232806 158.9765226 -219.9858123 114.98821731 -185.625 79.3125 C-184.99287598 78.65314453 -184.36075195 77.99378906 -183.70947266 77.31445312 C-174.56502521 67.82619695 -165.26765991 59.0862956 -154.625 51.3125 C-153.47394983 50.45443848 -152.32290823 49.59636549 -151.171875 48.73828125 C-142.98224019 42.70072604 -134.47961724 37.31792698 -125.625 32.3125 C-124.91778809 31.9103125 -124.21057617 31.508125 -123.48193359 31.09375 C-100.34654164 18.0683259 -75.17537591 9.31948539 -49.1875 4 C-48.46860596 3.85264404 -47.74971191 3.70528809 -47.0090332 3.5534668 C-31.36274391 0.57960912 -15.88931954 -0.06050362 0 0 Z " fill="#6C71E3" transform="translate(255.625,-0.3125)"/>
<path d="M0 0 C1.71332125 -0.00407549 3.42663987 -0.0094228 5.13995361 -0.01593018 C9.75155454 -0.02949352 14.36295193 -0.02435099 18.97455597 -0.01479292 C23.82597864 -0.0071389 28.67738516 -0.01425774 33.52880859 -0.01895142 C41.67223198 -0.02439237 49.81557345 -0.01726112 57.95898438 -0.00292969 C67.34190372 0.0133936 76.72462742 0.00810391 86.10754204 -0.0084089 C94.19801431 -0.02207128 102.28842806 -0.0239203 110.37890816 -0.0160929 C115.19589565 -0.0114424 120.01279153 -0.01071862 124.82977295 -0.02070236 C129.36077677 -0.02943929 133.89153106 -0.0232288 138.42250824 -0.00601959 C140.07434426 -0.00209036 141.72620169 -0.00312673 143.37802887 -0.00980759 C165.70941738 -0.09172355 184.43601371 5.4879483 201.1171875 20.89990234 C213.39866662 33.85238943 216.77927854 49.05857089 216.76708984 66.33056641 C216.77308516 67.7196539 216.77989299 69.10873809 216.78744507 70.49781799 C216.80501115 74.24805638 216.80979648 77.99820333 216.81107664 81.74847889 C216.81250425 84.09829708 216.81678533 86.44809247 216.82207108 88.79790497 C216.84054092 97.01502441 216.8487456 105.23207924 216.84716797 113.44921875 C216.84596769 121.07743823 216.86705554 128.70537427 216.8986553 136.33352208 C216.92491118 142.90881262 216.93553137 149.48401111 216.93425715 156.05935359 C216.93375021 159.97492513 216.93928356 163.8902445 216.96061325 167.80576324 C216.98015346 171.4930048 216.98001415 175.17975771 216.96557999 178.86701775 C216.9625333 180.84327982 216.97905748 182.81954279 216.99645996 184.79573059 C216.8807801 201.45467195 210.8427501 215.70833904 199.37109375 227.74755859 C180.41779088 245.03829103 158.3203204 246.69163669 133.84667969 246.67871094 C131.57367738 246.68470387 129.3006771 246.69151116 127.02767944 246.69906616 C120.88753392 246.71664635 114.74744422 246.7214179 108.60727596 246.72269773 C104.76730462 246.72412337 100.9273473 246.72840056 97.08737946 246.73369217 C84.37145742 246.75120876 71.65558155 246.76053574 58.93965039 246.75903122 C58.25638217 246.75895131 57.57311394 246.7588714 56.86914062 246.75878906 C56.18503031 246.7587073 55.50092 246.75862554 54.79607907 246.7585413 C43.69343504 246.75772726 32.59092628 246.77690428 21.48832139 246.8050658 C10.0622939 246.83381733 -1.36364016 246.84723908 -12.78970981 246.84587824 C-19.19445545 246.84536876 -25.59904748 246.85104629 -32.00376129 246.87223434 C-38.02198663 246.89160392 -44.03991146 246.89174971 -50.05814743 246.87720108 C-52.26358606 246.87511097 -54.46904347 246.87982584 -56.67444992 246.891922 C-59.69032149 246.90739008 -62.70515853 246.89805584 -65.7210083 246.88265991 C-66.58862518 246.89294704 -67.45624205 246.90323416 -68.35015035 246.91383302 C-75.38227238 246.83476869 -81.41896055 244.99511499 -86.86328125 240.42333984 C-87.65412109 239.446875 -87.65412109 239.446875 -88.4609375 238.45068359 C-89.00621094 237.80228516 -89.55148438 237.15388672 -90.11328125 236.48583984 C-93.9423556 230.78995916 -94.61856023 225.08060028 -93.5234375 218.38818359 C-91.18254435 212.79174367 -87.91521255 207.7825088 -83.74752808 203.39370728 C-72.71403817 191.0395877 -74.07525705 176.34240188 -74.37083292 160.75492048 C-74.43085053 156.8898889 -74.42322609 153.02498844 -74.42208862 149.15957642 C-74.42903314 141.84856517 -74.4873743 134.53904919 -74.56855476 127.22851908 C-74.71304555 114.14880547 -74.78766441 101.06880524 -74.81553924 87.98834383 C-74.82756662 83.41207989 -74.86792054 78.83725251 -74.93258977 74.26144004 C-74.96853125 71.40151559 -74.98367292 68.54172022 -74.99415016 65.68160057 C-75.00768735 63.75432555 -75.04664536 61.82727943 -75.08680725 59.90037537 C-75.0947947 44.39805356 -68.85050577 30.83854339 -58.2734375 19.63818359 C-41.72530084 3.93147761 -21.95319784 -0.08879028 0 0 Z " fill="#FEFEFE" transform="translate(194.5234375,132.61181640625)"/>
<path d="M0 0 C1.8904882 -0.02114868 1.8904882 -0.02114868 3.81916809 -0.04272461 C5.20827082 -0.03300389 6.59736999 -0.02276309 7.98646545 -0.01205444 C9.4552926 -0.01883268 10.92411124 -0.02773698 12.39291382 -0.03860474 C16.37657691 -0.06138279 20.35959195 -0.05256782 24.34326625 -0.03670931 C28.51516753 -0.02403999 32.68701375 -0.0357935 36.85891724 -0.04364014 C43.86572721 -0.05273474 50.87227363 -0.04075495 57.87904358 -0.01693726 C65.97434217 0.01026323 74.06901091 0.00146725 82.16429418 -0.02606928 C89.11905072 -0.04877755 96.07361789 -0.05195177 103.02839953 -0.03887594 C107.1802312 -0.03108943 111.33176709 -0.03001736 115.48357964 -0.04655838 C119.38839422 -0.06102874 123.29239906 -0.05093572 127.19712639 -0.0220871 C128.62816017 -0.01548936 130.05926237 -0.01735164 131.49026871 -0.02840042 C143.63934163 -0.11353687 143.63934163 -0.11353687 147.60366821 2.98394775 C149.74452209 5.63491821 149.74452209 5.63491821 150.36952209 8.69741821 C149.61992032 12.22054655 148.53327733 13.42031847 145.74452209 15.63491821 C143.02802078 16.99316887 140.88557293 16.77337522 137.84307861 16.78881836 C135.95660866 16.80171906 135.95660866 16.80171906 134.0320282 16.81488037 C132.6304478 16.81931573 131.22886696 16.82361407 129.82728577 16.82778931 C128.35728765 16.83568933 126.88729148 16.84395822 125.41729736 16.85256958 C120.58238073 16.87880008 115.74745538 16.89409769 110.91249084 16.90835571 C109.2490469 16.91371487 107.58560302 16.91909238 105.92215919 16.92448807 C99.00364908 16.94611782 92.08514132 16.96485525 85.16660595 16.97611046 C75.24620662 16.99235449 65.32619868 17.02554187 55.40594691 17.08251131 C48.4334869 17.12118947 41.46113167 17.14074058 34.48856717 17.14603102 C30.3226771 17.14968729 26.15720437 17.16173716 21.99143028 17.19413376 C18.07199024 17.22417762 14.15322084 17.23053984 10.23369026 17.21875 C8.79574969 17.21852895 7.35777833 17.22685986 5.91994476 17.24440384 C3.95573266 17.26706455 1.99121692 17.25582563 0.0269165 17.24291992 C-1.07202847 17.24623007 -2.17097345 17.24954021 -3.3032198 17.25295067 C-7.24507043 16.42775465 -8.75528444 14.72111961 -11.25547791 11.63491821 C-11.88047791 8.63491821 -11.88047791 8.63491821 -11.25547791 5.63491821 C-7.72243689 1.2799676 -5.58684579 0.00962919 0 0 Z " fill="#5C69CD" transform="translate(196.25547790527344,269.3650817871094)"/>
<path d="M0 0 C1.26321579 -0.00976364 2.52643158 -0.01952728 3.82792664 -0.02958679 C5.22020466 -0.01508222 6.61247759 -0.00008149 8.00474548 0.0153656 C9.47681085 0.01350099 10.94887482 0.00946315 12.42092896 0.00341797 C16.41278091 -0.00655286 20.40392228 0.01460606 24.39567113 0.04189801 C28.57381516 0.06573762 32.75194533 0.06278314 36.93014526 0.0632019 C43.94536867 0.06782907 50.96032057 0.09146567 57.97544861 0.12767029 C66.08652469 0.16941954 74.19735636 0.18698615 82.30853373 0.19029003 C90.94437078 0.19388945 99.58011987 0.21276302 108.21592021 0.23741031 C110.70447434 0.24363897 113.19302177 0.24727524 115.6815815 0.25044441 C119.59109804 0.25634524 123.50043995 0.27265896 127.4098835 0.29704857 C128.8449824 0.30448863 130.28010329 0.30856051 131.71522141 0.30902863 C133.67321255 0.3102865 135.6311811 0.32508056 137.58911133 0.34057617 C139.2330668 0.34755193 139.2330668 0.34755193 140.9102335 0.35466862 C143.76040044 0.61743548 145.37021647 1.02779755 147.73106384 2.61473083 C149.73106384 5.61473083 149.73106384 5.61473083 149.66856384 9.05223083 C148.53240351 13.36964011 147.43719547 14.24737618 143.73106384 16.61473083 C140.80000973 17.11250877 140.80000973 17.11250877 137.50009155 17.10920715 C135.6178891 17.12179062 135.6178891 17.12179062 133.69766235 17.1346283 C132.31483147 17.12366254 130.93200372 17.11229662 129.54917908 17.10057068 C128.08696656 17.10271752 126.62475571 17.10659666 125.16255188 17.11207581 C121.19766124 17.12175923 117.23322175 17.10647923 113.26838565 17.08616972 C109.11826014 17.06858729 104.96814832 17.07212401 100.81799316 17.07289124 C93.84989381 17.07101898 86.88196881 17.05366443 79.91392517 17.02635193 C71.85738376 16.99488959 63.80103318 16.98435621 55.74443477 16.98582304 C47.99326266 16.98704367 40.24215267 16.97683291 32.49099922 16.96023941 C29.19244464 16.95317802 25.89391204 16.94951353 22.59535027 16.948452 C18.71211005 16.94644306 14.82903007 16.93423308 10.94584274 16.91411972 C9.52041543 16.908278 8.09496968 16.90581732 6.66953087 16.90697479 C4.7246874 16.90795643 2.77985107 16.89540662 0.83505249 16.88215637 C-0.25354348 16.87880468 -1.34213945 16.875453 -2.46372318 16.87199974 C-5.30706084 16.61123438 -6.91277771 16.19692526 -9.26893616 14.61473083 C-11.6144329 11.09648572 -11.84885019 9.75697389 -11.26893616 5.61473083 C-7.74954942 1.23614243 -5.58997358 -0.01025521 0 0 Z " fill="#5867C9" transform="translate(196.26893615722656,225.38526916503906)"/>
<path d="M0 0 C1.27018478 -0.01409912 2.54036957 -0.02819824 3.8490448 -0.04272461 C5.24917961 -0.03300392 6.64931088 -0.02276313 8.04943848 -0.01205444 C9.52974014 -0.01883254 11.01003338 -0.02773676 12.49031067 -0.03860474 C16.50489573 -0.06138241 20.51883773 -0.05256849 24.53343391 -0.03670931 C28.73649949 -0.0240422 32.93951036 -0.03579266 37.14257812 -0.04364014 C44.20066199 -0.05273437 51.25848419 -0.04075485 58.31652832 -0.01693726 C66.47432917 0.01027376 74.6315052 0.00145943 82.7892909 -0.02606928 C89.79583566 -0.04876592 96.80219243 -0.05195778 103.80876207 -0.03887594 C107.99241915 -0.03108441 112.17578262 -0.03003142 116.35942078 -0.04655838 C120.29295761 -0.06101218 124.22568966 -0.0509659 128.15913963 -0.0220871 C129.60188143 -0.01548098 131.04469106 -0.01736601 132.48740578 -0.02840042 C134.45813183 -0.04208254 136.42900606 -0.02187435 138.3996582 0 C139.50208107 0.00188513 140.60450394 0.00377026 141.74033356 0.00571251 C145.6989847 0.84734442 147.23350797 2.48869017 149.6998291 5.63491821 C149.6998291 9.10133358 149.53346276 11.44190101 147.52122402 14.32162571 C144.86298519 16.23831335 142.81411768 16.01553488 139.55751038 16.02259827 C137.62894699 16.03745522 137.62894699 16.03745522 135.66142273 16.0526123 C134.23355008 16.04837401 132.80567834 16.04381613 131.37780762 16.03897095 C129.87648001 16.04467218 128.37515674 16.05163547 126.87384033 16.05976868 C122.79323876 16.07774313 118.71285172 16.07652367 114.63222241 16.07082629 C111.22753339 16.06774048 107.82288594 16.07382013 104.41820282 16.07986504 C96.38696184 16.09392285 88.3558272 16.09233868 80.32458496 16.08096313 C72.03511258 16.06948138 63.74596371 16.08355556 55.45653397 16.11035961 C48.34307084 16.13250119 41.22970937 16.13915746 34.11621422 16.1332832 C29.86607396 16.1299086 25.61614108 16.13236175 21.36602974 16.14953423 C17.36945364 16.1649768 13.37335749 16.16107818 9.37680054 16.14222908 C7.9094394 16.13853563 6.44204292 16.14167371 4.97471428 16.15211487 C2.97288949 16.16527254 0.9709412 16.1514016 -1.03086853 16.13612366 C-2.15155951 16.13591437 -3.2722505 16.13570509 -4.42690182 16.13548946 C-7.96629028 15.51886914 -9.14346795 14.45955974 -11.3001709 11.63491821 C-11.8626709 8.69741821 -11.8626709 8.69741821 -11.3001709 5.63491821 C-7.76256019 1.25423915 -5.60459945 0.00958379 0 0 Z " fill="#4E60C4" transform="translate(196.3001708984375,181.36508178710938)"/>
<path d="M0 0 C0.88173386 -0.0071553 1.76346771 -0.01431061 2.67192078 -0.02168274 C5.58584439 -0.03858836 8.49823354 -0.01915643 11.41210938 0.00219727 C13.4370537 0.00136874 15.46199797 -0.00109003 17.48693848 -0.00511169 C21.73059333 -0.00797097 25.97372076 0.00674442 30.21728516 0.03417969 C35.65842365 0.06826247 41.09861891 0.06224538 46.53980255 0.04351711 C50.72112903 0.0329514 54.90223582 0.04188109 59.08354187 0.05690193 C61.08981168 0.06208734 63.09610441 0.0615976 65.10237122 0.05535698 C67.90598937 0.04991001 70.70825471 0.07026313 73.51171875 0.09765625 C74.75709663 0.08786743 74.75709663 0.08786743 76.02763367 0.07788086 C79.64458028 0.13801062 81.81339495 0.30520458 84.76721191 2.48085022 C86.25585938 4.63110352 86.25585938 4.63110352 86.81835938 7.56860352 C86.0481735 11.76183771 84.59680457 13.01642785 81.25585938 15.63110352 C78.21067754 16.1205434 75.72899471 16.30679604 72.68945312 16.26220703 C71.83844025 16.26936234 70.98742737 16.27651764 70.11062622 16.28388977 C67.30432052 16.30076534 64.49961492 16.28138138 61.69335938 16.26000977 C59.73950061 16.26083857 57.78564191 16.26329839 55.83178711 16.26731873 C51.73953226 16.27017594 47.64782496 16.25548284 43.55566406 16.22802734 C38.31305902 16.19394482 33.07143303 16.19996356 27.82878113 16.21868992 C23.79496111 16.22926408 19.76136846 16.22031828 15.72756958 16.2053051 C13.79469478 16.20012589 11.8617962 16.20060192 9.92892456 16.20685005 C7.22618647 16.21230726 4.52484458 16.19191142 1.82226562 16.16455078 C1.02523224 16.17107666 0.22819885 16.17760254 -0.59298706 16.18432617 C-4.30949905 16.120428 -6.5303883 15.76427577 -9.71313477 13.78135681 C-12.33417828 11.00642269 -12.82185748 9.43922938 -12.74414062 5.63110352 C-9.62865527 -0.03800863 -5.96320092 -0.08397805 0 0 Z " fill="#5B66CF" transform="translate(228.744140625,314.368896484375)"/>
</svg>
